# xmcd
# 
# Track frame offsets:
#     150
#     17657
#     35440
#     52333
#     70020
#     87136
#     104125
#     122688
#     140307
#     158536
#     175339
#     192086
#     209055
#     230332
#     246268
#     263618
# 
# Disc length: 3765
# 
# Revision: 2
# Processed by: cddbd v1.5.2PL0 Copyright (c) Steve Scherf et al.
# Submitted via: fre:ac v1.0.17
# 
DISCID=de0eb310
DTITLE=うしろ髪ひかれ隊 - うしろ髪ひかれ隊 BEST
DYEAR=2001
DGENRE=J-Pop
TTITLE0=時の河を越えて
TTITLE1=うしろ髪ひかれたい
TTITLE2=あなたを知りたい
TTITLE3=立つ鳥跡を濁さず
TTITLE4=メビウスの恋人
TTITLE5=ごめんねカウボーイ
TTITLE6=ほらね、春が来た
TTITLE7=誰も知らないブルーエンジェル
TTITLE8=ご期待下さい!
TTITLE9=今日はサイコー
TTITLE10=予感のスコール
TTITLE11=素敵なモーニングドライブ
TTITLE12=引き潮
TTITLE13=Nice!
TTITLE14=BAB CALL
TTITLE15=Honey
EXTD=
EXTT0=
EXTT1=
EXTT2=
EXTT3=
EXTT4=
EXTT5=
EXTT6=
EXTT7=
EXTT8=
EXTT9=
EXTT10=
EXTT11=
EXTT12=
EXTT13=
EXTT14=
EXTT15=
PLAYORDER=
